<?xml version="1.0" standalone="no"?>
<!DOCTYPE svg PUBLIC "-//W3C//DTD SVG 1.1//EN" "http://www.w3.org/Graphics/SVG/1.1/DTD/svg11.dtd">
<svg viewBox="0 0 1024 1024" version="1.1" xmlns="http://www.w3.org/2000/svg" width="500" height="500" xmlns:xlink="http://www.w3.org/1999/xlink">
	<path d="M511.585326 450.454253m-268.191402 0a268.191403 268.191403 0 1 0 536.382805 0 268.191403 268.191403 0 1 0-536.382805 0Z" fill="#ACF0F2"></path>
	<path d="M511.585326 463.864079c-199.964804 0-362.059161 162.093334-362.059161 362.059162H297.032204c-0.001024-199.965828 96.067064-362.059161 214.553122-362.059162z" fill="#F28C13"></path>
	<path d="M444.53722 463.864079v-26.819652c0-37.032908 30.015198-67.048107 67.048106-67.048107s67.048107 30.015198 67.048107 67.048107v26.819652" fill="#FFFFFF"></path>
	<path d="M511.585326 463.864079c-118.486058 0-214.553122 162.093334-214.553122 362.059162h576.612284c0-199.965828-162.094357-362.059161-362.059162-362.059162z" fill="#FFB957"></path>
	<path d="M95.887885 879.561521h831.394883" fill="#FFFFFF"></path>
	<path d="M95.887885 866.151695h831.394883v26.819652h-831.394883zM716.654199 199.595181l18.962356 18.962357L628.341018 325.833075l-18.962356-18.962357zM498.1755 128.62457h26.819653v160.914842h-26.819653zM672.500168 383.406147H833.41501v26.819652H672.500168zM306.512359 199.597229l107.275537 107.275537-18.962356 18.962356L287.551026 218.559585zM189.754619 383.406147h160.914842v26.819652H189.754619zM592.042235 463.864079h-26.819652v-26.819652c0-29.575951-24.056186-53.638281-53.63828-53.63828s-53.638281 24.062329-53.638281 53.63828v26.819652h-26.819652v-26.819652c0-44.366999 36.090934-80.457933 80.457933-80.457933s80.457933 36.090934 80.457932 80.457933v26.819652z" fill="#4D5152"></path>
	<path d="M887.05329 839.333067H136.116339v-13.409826c0-207.03678 168.432208-375.468987 375.468987-375.468988s375.468987 168.432208 375.468988 375.468988v13.409826z m-723.868495-26.819653h696.801063c-7.084263-186.051226-160.653751-335.239509-348.400532-335.239509S170.269058 626.462188 163.184795 812.513414z" fill="#4D5152"></path>
</svg>